<svg width="22" height="25" viewBox="0 0 22 25" fill="none" xmlns="http://www.w3.org/2000/svg">
<path d="M21.9736 11.837C21.6128 5.77157 17.2245 0.922776 11.7333 0.524245V0.496704H11H10.2667V0.524245C4.77547 0.922776 0.385733 5.77157 0.0249333 11.837H0V12.647V13.4571H0.0249333C0.385733 19.5225 4.77547 24.3697 10.2667 24.7682V24.7974H11H11.7333V24.7682C17.2245 24.3697 21.6128 19.5225 21.9736 13.4571H22V12.647V11.837H21.9736ZM6.886 3.14548C6.1776 4.18554 5.58947 5.48968 5.1612 6.97688H2.96413C3.9204 5.3293 5.27853 3.996 6.886 3.14548ZM2.19707 8.59692H4.77547C4.57893 9.62079 4.45427 10.7078 4.41467 11.837H1.49453C1.57227 10.6965 1.81573 9.60621 2.19707 8.59692ZM1.49453 13.4571H4.41467C4.45427 14.5862 4.57893 15.6733 4.77547 16.6971H2.19707C1.81573 15.6879 1.57227 14.5976 1.49453 13.4571ZM2.96413 18.3172H5.15973C5.588 19.8044 6.17613 21.1085 6.886 22.1486C5.27853 21.2981 3.9204 19.9664 2.96413 18.3172ZM10.2667 23.0736C8.75893 22.6281 7.46093 20.8396 6.67333 18.3172H10.2667V23.0736ZM10.2667 16.6971H6.2612C6.0544 15.6879 5.92387 14.5976 5.88133 13.4571H10.2667V16.6971ZM10.2667 11.837H5.88133C5.92387 10.6965 6.0544 9.60621 6.2612 8.59692H10.2667V11.837ZM10.2667 6.97688H6.67333C7.46093 4.45447 8.75893 2.66594 10.2667 2.22205V6.97688ZM19.0359 6.97688H16.8417C16.412 5.48968 15.8253 4.18554 15.114 3.14548C16.72 3.996 18.0796 5.3293 19.0359 6.97688ZM11.7333 2.22205C13.2396 2.66594 14.5391 4.45447 15.3267 6.97688H11.7333V2.22205ZM11.7333 8.59692H15.7373C15.9456 9.60621 16.0732 10.6965 16.1187 11.837H11.7333V8.59692ZM11.7333 13.4571H16.1187C16.0761 14.5976 15.9456 15.6879 15.7373 16.6971H11.7333V13.4571ZM11.7333 23.0736V18.3172H15.3267C14.5391 20.8396 13.2396 22.6281 11.7333 23.0736ZM15.114 22.1486C15.8224 21.1069 16.412 19.8044 16.8417 18.3172H19.0359C18.0796 19.9664 16.72 21.2981 15.114 22.1486ZM19.8029 16.6971H17.2245C17.4211 15.6733 17.5457 14.5862 17.5853 13.4571H20.504C20.4277 14.5976 20.1843 15.6879 19.8029 16.6971ZM17.5853 11.837C17.5457 10.7078 17.4211 9.62079 17.2245 8.59692H19.8029C20.1843 9.60621 20.4277 10.6965 20.5055 11.837H17.5853Z" fill="#C4C4C2"/>
</svg>
