<svg width="58" height="54" viewBox="0 0 58 54" fill="none" xmlns="http://www.w3.org/2000/svg">
<path d="M55.1 9.59999H42.5333V5.73333C42.53 3.06508 40.3682 0.903298 37.7 0.899994H20.3C17.6318 0.903298 15.47 3.06508 15.4667 5.73333V9.59999H2.9C1.29849 9.59999 0 10.8985 0 12.5V34.0178C0.00613606 35.244 0.778808 36.3348 1.93333 36.7469V50.2C1.93333 51.8015 3.23182 53.1 4.83333 53.1H53.1667C54.7682 53.1 56.0667 51.8015 56.0667 50.2V36.7478C57.2212 36.3353 57.9943 35.244 58 34.0178V12.5C58 10.8985 56.7015 9.59999 55.1 9.59999ZM17.4 5.73333C17.4 4.13181 18.6985 2.83333 20.3 2.83333H37.7C39.3015 2.83333 40.6 4.13181 40.6 5.73333V9.59999H38.6667V5.73333C38.6667 5.19949 38.2338 4.76666 37.7 4.76666H20.3C19.7662 4.76666 19.3333 5.19949 19.3333 5.73333V9.59999H17.4V5.73333ZM36.7333 9.59999H21.2667V6.69999H36.7333V9.59999ZM54.1333 50.2C54.1333 50.7338 53.7005 51.1667 53.1667 51.1667H4.83333C4.2995 51.1667 3.86667 50.7338 3.86667 50.2V37.0792L25.1333 40.0122V42.4667C25.1333 44.0682 26.4318 45.3667 28.0333 45.3667H29.9667C31.5682 45.3667 32.8667 44.0682 32.8667 42.4667V40.0122L54.1333 37.0792V50.2ZM30.9333 42.4667C30.9333 43.0005 30.5005 43.4333 29.9667 43.4333H28.0333C27.4995 43.4333 27.0667 43.0005 27.0667 42.4667V36.6667C27.0667 36.1328 27.4995 35.7 28.0333 35.7H29.9667C30.5005 35.7 30.9333 36.1328 30.9333 36.6667V42.4667ZM56.0667 34.0178C56.0671 34.4997 55.7127 34.9084 55.2355 34.9759L54.9674 35.0128L32.8667 38.0605V36.6667C32.8667 35.0651 31.5682 33.7667 29.9667 33.7667H28.0333C26.4318 33.7667 25.1333 35.0651 25.1333 36.6667V38.0605L2.76548 34.9759C2.28828 34.9089 1.93286 34.5002 1.93333 34.0178V12.5C1.93333 11.9662 2.36616 11.5333 2.9 11.5333H55.1C55.6338 11.5333 56.0667 11.9662 56.0667 12.5V34.0178Z" fill="#ED1C24"/>
</svg>
