<svg width="83" height="48" viewBox="0 0 83 48" fill="none" xmlns="http://www.w3.org/2000/svg">
<path d="M69.5283 21.4635H58.9528C56.7672 21.4621 54.6186 22.0245 52.717 23.0958C51.0983 24.0088 49.6981 25.2602 48.6132 26.7637C47.8906 26.6383 47.1583 26.5756 46.4245 26.5761H35.8396C35.1059 26.5754 34.3736 26.6383 33.6509 26.7637C32.5663 25.26 31.166 24.0085 29.5472 23.0958C27.6455 22.0245 25.4969 21.4621 23.3113 21.4635H12.7358C5.70849 21.479 0.015566 27.1399 0 34.1278V41.2666C0.00518868 42.0143 0.616038 42.6175 1.36792 42.6175H23.066V46.3699C23.066 47.121 23.6785 47.7301 24.434 47.7301H57.7925C58.5479 47.7301 59.1604 47.121 59.1604 46.3699V42.6175H80.8585C81.6139 42.6175 82.2264 42.0084 82.2264 41.2573V34.1278C82.2108 27.1544 76.5408 21.4996 69.5283 21.4635ZM23.2075 38.0208V38.3116C23.2075 38.443 23.2075 38.5649 23.2075 38.6963V39.2404V39.897H2.73585V34.1278C2.75142 28.6423 7.21934 24.1995 12.7358 24.184H23.3113C25.0238 24.1821 26.7075 24.6216 28.1981 25.4598C29.1974 26.0217 30.0939 26.7483 30.8491 27.608C26.5922 29.4453 23.6686 33.4293 23.2075 38.0208ZM56.3962 39.2404V45.019H25.8396V39.1372C25.8396 39.0309 25.8396 38.9277 25.8396 38.8276C25.8396 38.6651 25.8396 38.5023 25.8396 38.3398V38.0959C25.8396 38.0021 25.8396 37.9083 25.8396 37.8145V37.5143V37.4205V37.3173V37.1109L25.8962 36.8858L25.9906 36.548L26.0566 36.3229C27.4118 32.2387 31.241 29.4734 35.566 29.4561L35.8396 29.306H46.4245C51.4474 29.3243 55.6835 33.0314 56.3396 37.9833C56.3396 38.1897 56.3396 38.3961 56.3962 38.6025C56.3962 38.8152 56.3962 39.0277 56.3962 39.2404ZM79.5283 39.9064H59.1509V39.0903C59.1509 38.9871 59.1509 38.8839 59.1509 38.7807C59.1509 38.6745 59.1509 38.568 59.1509 38.4617C59.1509 38.3117 59.1509 38.1522 59.1509 38.0021V37.8614V37.7019V37.4111V37.3642V37.2516V37.1484V37.0827V36.9608V36.8295V36.7638V36.6794V36.5949V36.5105V36.3041V36.2103V36.0884V35.9664L59.0849 35.7319V35.6381V35.5537V35.488V35.3942V35.2722L58.9528 34.9064C57.7236 31.6571 55.2165 29.0456 52.0094 27.6737C52.5769 26.8383 53.267 26.0921 54.0566 25.4598C55.5472 24.6216 57.2309 24.1821 58.9434 24.184H69.5283C75.0446 24.1995 79.5127 28.6423 79.5283 34.1278V39.9064Z" fill="#ED1C24"/>
<path d="M24.8308 2.82282C23.0282 1.01981 20.5763 0.00667259 18.0195 0.00854877C12.6999 0.00385832 8.38363 4.28812 8.37891 9.57801C8.37419 14.8677 12.6827 19.1597 18.0025 19.1644C23.3223 19.1691 27.6383 14.8848 27.6431 9.5949C27.6452 7.05619 26.6339 4.62044 24.8308 2.82282ZM22.8968 14.427C20.2041 17.1055 15.8379 17.1064 13.144 14.4289C10.4504 11.7513 10.4494 7.40962 13.1421 4.7309C15.8348 2.05241 20.2011 2.05148 22.8949 4.72902C24.1883 6.01468 24.9152 7.75859 24.9157 9.57708C24.9183 11.3965 24.1919 13.1418 22.8968 14.427Z" fill="#ED1C24"/>
<path d="M64.2538 3.84769e-06C58.9343 -0.00468661 54.618 4.27957 54.6133 9.56947C54.6109 12.1082 55.6225 14.5442 57.4255 16.3415C59.2281 18.1446 61.68 19.1577 64.2369 19.1558C69.5564 19.1605 73.8727 14.8762 73.8774 9.58635C73.8822 4.29646 69.5734 0.0046943 64.2538 3.84769e-06ZM69.1234 14.4239C66.4307 17.1023 62.0645 17.1033 59.3706 14.4257C58.0772 13.1401 57.3503 11.3962 57.3498 9.57768C57.3473 7.75825 58.0737 6.01293 59.3687 4.72775C62.0614 2.04926 66.4277 2.04833 69.1215 4.72587C71.8152 7.40342 71.8161 11.7454 69.1234 14.4239Z" fill="#ED1C24"/>
<path d="M47.9288 7.9035C46.1241 6.11503 43.6795 5.1115 41.1316 5.11267C38.5748 5.1108 36.1229 6.12394 34.3203 7.92695C30.5689 11.6702 30.5795 17.7286 34.3439 21.4589C38.1083 25.1893 44.201 25.1787 47.9524 21.4355C51.7038 17.6923 51.6932 11.6338 47.9288 7.9035ZM41.1297 21.5556C37.321 21.5544 34.2345 18.4833 34.2354 14.6962C34.2364 10.9092 37.325 7.83971 41.1335 7.84065C42.9623 7.84112 44.7161 8.56392 46.009 9.85005C47.304 11.1352 48.0305 12.8806 48.0279 14.7C48.0267 18.4873 44.9382 21.5565 41.1297 21.5556Z" fill="#ED1C24"/>
</svg>
