<svg width="139" height="51" viewBox="0 0 139 51" fill="none" xmlns="http://www.w3.org/2000/svg">
<path d="M29.6015 47V49.8454H32.4468V47H29.6015ZM29.6015 42.3635H32.4468V39.5182H29.6015V42.3635ZM9.63367 42.3635L7.75394 40.2275L2.09325 45.2089H9.63367V42.3635ZM19.8339 31.916L21.9841 33.7795L21.9952 33.7668L22.0061 33.7539L19.8339 31.916ZM24.7177 6.50802L22.6474 8.45997L22.6475 8.45997L24.7177 6.50802ZM3.57533 13.37L0.765011 12.9248L0.413278 15.1451L2.49196 16.0011L3.57533 13.37ZM7.77907 15.101L6.6957 17.732L9.95321 19.0733L10.5792 15.6065L7.77907 15.101ZM15.5684 29.8759L17.7767 31.6702L17.7847 31.6604L17.7925 31.6505L15.5684 29.8759ZM3.20441 42.9817L1.21395 40.9484L0.359047 41.7854V42.9817H3.20441ZM3.20441 47H0.359047V49.8454H3.20441V47ZM32.4468 47V42.3635H26.7561V47H32.4468ZM29.6015 39.5182H9.63367V45.2089H29.6015V39.5182ZM11.5134 44.4996C13.0857 43.1159 14.6176 41.7126 16.0967 40.2336L12.0727 36.2096C10.7081 37.5742 9.27258 38.8911 7.75394 40.2275L11.5134 44.4996ZM16.0967 40.2336C17.5903 38.7399 19.5587 36.578 21.9841 33.7795L17.6837 30.0524C15.2872 32.8177 13.4228 34.8596 12.0727 36.2096L16.0967 40.2336ZM22.0061 33.7539C26.965 27.8934 30.6541 20.7644 30.6541 14.1737H24.9633C24.9633 18.8342 22.2232 24.6873 17.6618 30.078L22.0061 33.7539ZM30.6541 14.1737C30.6541 10.4494 29.304 7.2246 26.788 4.55606L22.6475 8.45997C24.2115 10.1188 24.9633 11.9632 24.9633 14.1737H30.6541ZM26.788 4.55606C24.0774 1.6812 20.2765 0.386206 15.9393 0.386206V6.07693C19.1441 6.07693 21.2779 7.00744 22.6474 8.45997L26.788 4.55606ZM15.9393 0.386206C8.45238 0.386206 1.99673 5.14961 0.765011 12.9248L6.38564 13.8152C7.13216 9.10282 10.9386 6.07693 15.9393 6.07693V0.386206ZM2.49196 16.0011L6.6957 17.732L8.86244 12.4699L4.6587 10.739L2.49196 16.0011ZM10.5792 15.6065C11.1502 12.444 13.2399 11.0225 15.5066 11.0225V5.33179C10.3549 5.33179 6.01528 8.85592 4.97899 14.5954L10.5792 15.6065ZM15.5066 11.0225C17.1156 11.0225 18.0929 11.5342 18.6728 12.1365C19.2707 12.7576 19.7087 13.7497 19.7087 15.1628H25.3994C25.3994 12.5576 24.57 10.0569 22.7724 8.1897C20.9568 6.30376 18.4104 5.33179 15.5066 5.33179V11.0225ZM19.7087 15.1628C19.7087 18.1704 17.8899 22.4041 13.3442 28.1013L17.7925 31.6505C22.5198 25.7256 25.3994 20.1918 25.3994 15.1628H19.7087ZM13.36 28.0816C11.0488 30.9263 7.05675 35.2287 1.21395 40.9484L5.19487 45.015C11.0978 39.2363 15.266 34.7602 17.7767 31.6702L13.36 28.0816ZM0.359047 42.9817V47H6.04977V42.9817H0.359047ZM3.20441 49.8454H29.6015V44.1546H3.20441V49.8454ZM60.9654 9.22809L58.4926 10.6357L58.5055 10.6583L58.5188 10.6808L60.9654 9.22809ZM39.8848 9.22809L37.4284 7.79203L37.4215 7.80398L39.8848 9.22809ZM39.9466 41.5599L37.4902 42.9959L37.5033 43.0183L37.5169 43.0405L39.9466 41.5599ZM67.3345 25.3631C67.3345 18.2797 66.1181 12.3331 63.412 7.77542L58.5188 10.6808C60.511 14.036 61.6437 18.8461 61.6437 25.3631H67.3345ZM63.4382 7.8205C60.6236 2.87598 56.1333 0.386206 50.456 0.386206V6.07693C54.1753 6.07693 56.7325 7.54362 58.4926 10.6357L63.4382 7.8205ZM50.456 0.386206C44.773 0.386206 40.301 2.8784 37.4284 7.79205L42.3412 10.6641C44.1669 7.54119 46.7424 6.07693 50.456 6.07693V0.386206ZM37.4215 7.80398C34.7951 12.3469 33.5775 18.2766 33.5775 25.3631H39.2683C39.2683 18.8491 40.3999 14.0222 42.3481 10.6522L37.4215 7.80398ZM33.5775 25.3631C33.5775 32.4529 34.7962 38.3877 37.4902 42.9959L42.403 40.1238C40.3987 36.6954 39.2683 31.8736 39.2683 25.3631H33.5775ZM37.5169 43.0405C40.449 47.8522 44.8978 50.3399 50.5796 50.3399V44.6492C46.8648 44.6492 44.2662 43.1805 42.3764 40.0792L37.5169 43.0405ZM50.5796 50.3399C56.316 50.3399 60.6993 47.6648 63.4958 43.0197C66.1803 38.5605 67.3345 32.4301 67.3345 25.3631H61.6437C61.6437 31.9582 60.5414 36.8936 58.6204 40.0846C56.8113 43.0896 54.2399 44.6492 50.5796 44.6492V50.3399ZM50.5796 40.0127C49.5818 40.0127 48.8385 39.7759 48.2418 39.3858C47.63 38.986 47.0062 38.3152 46.4386 37.2008C45.2613 34.8892 44.5229 31.0568 44.5229 25.3631H38.8322C38.8322 31.3533 39.5775 36.2684 41.3676 39.7833C42.2837 41.5821 43.5144 43.0944 45.1282 44.1492C46.757 45.2139 48.6102 45.7034 50.5796 45.7034V40.0127ZM44.5229 25.3631C44.5229 19.6638 45.2469 15.8254 46.4081 13.5093C46.9679 12.3926 47.5816 11.7257 48.1778 11.3309C48.7574 10.9471 49.4797 10.7134 50.456 10.7134V5.02269C48.4959 5.02269 46.6526 5.51543 45.0357 6.58631C43.4354 7.64614 42.2215 9.16232 41.3208 10.9589C39.561 14.4693 38.8322 19.3784 38.8322 25.3631H44.5229ZM50.456 10.7134C51.5053 10.7134 52.2541 10.9602 52.8355 11.3463C53.4325 11.7427 54.0369 12.4093 54.5833 13.5286C55.7214 15.8602 56.3891 19.7003 56.3891 25.3631H62.0798C62.0798 19.4656 61.4183 14.5581 59.6973 11.0323C58.8141 9.22292 57.6064 7.68327 55.9836 6.60564C54.3453 5.51773 52.4668 5.02269 50.456 5.02269V10.7134ZM56.3891 25.3631C56.3891 31.0727 55.7491 34.9149 54.6358 37.24C54.1028 38.353 53.514 39.0057 52.9356 39.3914C52.3721 39.767 51.6348 40.0127 50.5796 40.0127V45.7034C52.5846 45.7034 54.4592 45.215 56.0922 44.1263C57.7103 43.0476 58.9027 41.5057 59.7684 39.6977C61.4524 36.1809 62.0798 31.2755 62.0798 25.3631H56.3891ZM95.8598 9.22809L93.387 10.6357L93.3999 10.6583L93.4132 10.6808L95.8598 9.22809ZM74.7792 9.22809L72.3228 7.79203L72.3159 7.80398L74.7792 9.22809ZM74.841 41.5599L72.3846 42.9959L72.3977 43.0183L72.4113 43.0405L74.841 41.5599ZM102.229 25.3631C102.229 18.2797 101.012 12.3331 98.3064 7.77542L93.4132 10.6808C95.4054 14.036 96.5381 18.8461 96.5381 25.3631H102.229ZM98.3326 7.8205C95.518 2.87598 91.0277 0.386206 85.3504 0.386206V6.07693C89.0697 6.07693 91.6269 7.54362 93.387 10.6357L98.3326 7.8205ZM85.3504 0.386206C79.6674 0.386206 75.1954 2.8784 72.3228 7.79205L77.2356 10.6641C79.0613 7.54119 81.6367 6.07693 85.3504 6.07693V0.386206ZM72.3159 7.80398C69.6895 12.3469 68.4719 18.2766 68.4719 25.3631H74.1627C74.1627 18.8491 75.2943 14.0222 77.2425 10.6522L72.3159 7.80398ZM68.4719 25.3631C68.4719 32.4529 69.6906 38.3877 72.3846 42.9959L77.2974 40.1238C75.2931 36.6954 74.1627 31.8736 74.1627 25.3631H68.4719ZM72.4113 43.0405C75.3434 47.8522 79.7922 50.3399 85.474 50.3399V44.6492C81.7592 44.6492 79.1606 43.1805 77.2708 40.0792L72.4113 43.0405ZM85.474 50.3399C91.2104 50.3399 95.5937 47.6648 98.3902 43.0197C101.075 38.5605 102.229 32.4301 102.229 25.3631H96.5381C96.5381 31.9582 95.4358 36.8936 93.5148 40.0846C91.7057 43.0896 89.1343 44.6492 85.474 44.6492V50.3399ZM85.474 40.0127C84.4762 40.0127 83.7329 39.7759 83.1362 39.3858C82.5244 38.986 81.9006 38.3152 81.333 37.2008C80.1557 34.8892 79.4173 31.0568 79.4173 25.3631H73.7266C73.7266 31.3533 74.4719 36.2684 76.262 39.7833C77.1781 41.5821 78.4088 43.0944 80.0226 44.1492C81.6514 45.2139 83.5045 45.7034 85.474 45.7034V40.0127ZM79.4173 25.3631C79.4173 19.6638 80.1413 15.8254 81.3025 13.5093C81.8623 12.3926 82.476 11.7257 83.0722 11.3309C83.6518 10.9471 84.3741 10.7134 85.3504 10.7134V5.02269C83.3903 5.02269 81.547 5.51543 79.9301 6.58631C78.3298 7.64614 77.1159 9.16232 76.2152 10.9589C74.4554 14.4693 73.7266 19.3784 73.7266 25.3631H79.4173ZM85.3504 10.7134C86.3997 10.7134 87.1485 10.9602 87.7299 11.3463C88.3269 11.7427 88.9313 12.4093 89.4777 13.5286C90.6158 15.8602 91.2834 19.7003 91.2834 25.3631H96.9742C96.9742 19.4656 96.3127 14.5581 94.5917 11.0323C93.7085 9.22292 92.5008 7.68327 90.878 6.60564C89.2397 5.51773 87.3612 5.02269 85.3504 5.02269V10.7134ZM91.2834 25.3631C91.2834 31.0727 90.6435 34.9149 89.5302 37.24C88.9972 38.353 88.4084 39.0057 87.83 39.3914C87.2665 39.767 86.5291 40.0127 85.474 40.0127V45.7034C87.479 45.7034 89.3536 45.215 90.9866 44.1263C92.6047 43.0476 93.7971 41.5057 94.6628 39.6977C96.3468 36.1809 96.9742 31.2755 96.9742 25.3631H91.2834ZM126.86 20.1702L124.848 18.1582L124.825 18.1806L124.803 18.2034L126.86 20.1702ZM130.321 34.8833H133.167V34.8646L133.167 34.8459L130.321 34.8833ZM114.557 29.3813L116.402 31.5474V31.5474L114.557 29.3813ZM110.972 44.4036L109.225 46.6496L110.972 44.4036ZM131.434 44.3417L133.181 46.5877H133.181L131.434 44.3417ZM127.107 24.8067H124.261V27.2221L126.645 27.6143L127.107 24.8067ZM127.107 24.6212L126.063 21.9743L124.261 22.6847V24.6212H127.107ZM130.445 6.26074L132.261 4.0705V4.0705L130.445 6.26074ZM111.899 6.26074L110.083 4.0705L110.069 4.08154L110.056 4.09274L111.899 6.26074ZM114.99 24.683H117.835V22.6322L115.89 21.9837L114.99 24.683ZM114.99 24.8685L115.785 27.6004L117.835 27.0036V24.8685H114.99ZM120.43 19.4267C119.38 19.4267 118.483 19.0824 117.558 18.1582L113.535 22.1822C115.454 24.1017 117.772 25.1174 120.43 25.1174V19.4267ZM117.558 18.1582C116.664 17.2639 116.29 16.316 116.29 15.1628H110.599C110.599 17.8424 111.585 20.2328 113.535 22.1822L117.558 18.1582ZM116.29 15.1628C116.29 12.7624 118.05 10.8989 121.11 10.8989V5.20815C115.392 5.20815 110.599 9.15567 110.599 15.1628H116.29ZM121.11 10.8989C122.731 10.8989 123.998 11.3996 124.816 12.1101C125.594 12.7867 126.116 13.7742 126.116 15.1628H131.807C131.807 12.1621 130.597 9.59504 128.548 7.81431C126.537 6.06743 123.879 5.20815 121.11 5.20815V10.8989ZM126.116 15.1628C126.116 16.316 125.742 17.2639 124.848 18.1582L128.871 22.1822C130.821 20.2328 131.807 17.8424 131.807 15.1628H126.116ZM124.803 18.2034C123.967 19.0778 123.097 19.4267 122.038 19.4267V25.1174C124.687 25.1174 127.032 24.1063 128.916 22.137L124.803 18.2034ZM122.038 19.4267H120.43V25.1174H122.038V19.4267ZM121.976 30.063C123.732 30.063 125.098 30.6139 125.994 31.4128C126.862 32.1864 127.455 33.3326 127.476 34.9207L133.167 34.8459C133.126 31.7358 131.895 29.0491 129.78 27.1644C127.694 25.305 124.917 24.3723 121.976 24.3723V30.063ZM127.476 34.8833C127.476 36.4404 126.899 37.5796 125.967 38.3721C124.992 39.2013 123.407 39.8273 121.172 39.8273V45.518C124.439 45.518 127.429 44.5984 129.653 42.7076C131.92 40.78 133.167 38.0246 133.167 34.8833H127.476ZM121.172 39.8273C117.059 39.8273 114.93 37.4271 114.93 34.8833H109.239C109.239 41.3652 114.776 45.518 121.172 45.518V39.8273ZM114.93 34.8833C114.93 33.4338 115.411 32.3923 116.402 31.5474L112.712 27.2153C110.366 29.2141 109.239 31.8818 109.239 34.8833H114.93ZM116.402 31.5474C117.532 30.5856 118.909 30.063 120.616 30.063V24.3723C117.624 24.3723 114.921 25.3334 112.712 27.2153L116.402 31.5474ZM120.616 30.063H121.976V24.3723H120.616V30.063ZM103.985 35.8106C103.985 40.2467 105.728 43.9301 109.225 46.6496L112.719 42.1576C110.651 40.5496 109.675 38.5457 109.675 35.8106H103.985ZM109.225 46.6496C112.595 49.2705 116.705 50.4636 121.234 50.4636V44.7728C117.726 44.7728 114.913 43.864 112.719 42.1576L109.225 46.6496ZM121.234 50.4636C125.809 50.4636 129.843 49.1839 133.181 46.5877L129.687 42.0958C127.461 43.827 124.695 44.7728 121.234 44.7728V50.4636ZM133.181 46.5877C136.724 43.8321 138.421 39.999 138.421 35.4397H132.731C132.731 38.4224 131.708 40.524 129.687 42.0958L133.181 46.5877ZM138.421 35.4397C138.421 28.5295 133.932 23.0461 127.569 21.9991L126.645 27.6143C130.049 28.1746 132.731 31.0987 132.731 35.4397H138.421ZM129.952 24.8067V24.6212H124.261V24.8067H129.952ZM128.151 27.2682C133.622 25.1106 137.061 19.8607 137.061 14.421H131.371C131.371 17.5123 129.37 20.6699 126.063 21.9743L128.151 27.2682ZM137.061 14.421C137.061 10.2693 135.473 6.73391 132.261 4.0705L128.629 8.45097C130.486 9.99131 131.371 11.8961 131.371 14.421H137.061ZM132.261 4.0705C129.16 1.499 125.407 0.262564 121.172 0.262564V5.95329C124.232 5.95329 126.66 6.81873 128.629 8.45098L132.261 4.0705ZM121.172 0.262564C116.938 0.262564 113.184 1.499 110.083 4.0705L113.715 8.45098C115.684 6.81873 118.112 5.95329 121.172 5.95329V0.262564ZM110.056 4.09274C106.927 6.75277 105.345 10.2754 105.345 14.421H111.035C111.035 11.89 111.926 9.97245 113.742 8.42873L110.056 4.09274ZM105.345 14.421C105.345 20.1737 108.88 25.6456 114.09 27.3824L115.89 21.9837C113.311 21.124 111.035 18.0648 111.035 14.421H105.345ZM112.145 24.683V24.8685H117.835V24.683H112.145ZM114.195 22.1366C108.101 23.9107 103.985 29.2858 103.985 35.8106H109.675C109.675 31.8261 112.112 28.6701 115.785 27.6004L114.195 22.1366Z" fill="#ED1C24"/>
</svg>
