<svg width="63" height="51" viewBox="0 0 63 51" fill="none" xmlns="http://www.w3.org/2000/svg">
<path d="M62.1449 49.7076L60.9799 45.113C60.8625 44.65 60.4408 44.3252 59.9567 44.3252H58.6818V40.7702C58.6818 40.1957 58.2096 39.7302 57.6271 39.7302H42.3743V37.2101H57.6273C58.2098 37.2101 58.682 36.7446 58.682 36.1701V31.5751C58.682 31.0007 58.2098 30.535 57.6273 30.535H56.3521V29.2838C56.3521 17.1754 47.2163 7.13307 35.3852 5.50354V2.75604H38.9897C39.5722 2.75604 40.0444 2.29052 40.0444 1.716C40.0444 1.14149 39.5722 0.675964 38.9897 0.675964H25.0116C24.4292 0.675964 23.9569 1.14149 23.9569 1.716C23.9569 2.29052 24.4292 2.75604 25.0116 2.75604H28.6165V5.50354C16.7851 7.13279 7.64911 17.1753 7.64911 29.2838V30.535H6.37421C5.79174 30.535 5.31952 31.0007 5.31952 31.5751V36.1701C5.31952 36.7446 5.79174 37.2101 6.37421 37.2101H21.6272V39.7302H6.37407C5.7916 39.7302 5.31938 40.1957 5.31938 40.7702V44.3252H4.04448C3.64496 44.3252 3.27976 44.5478 3.10117 44.9002L0.771575 49.4948C0.608029 49.8172 0.625467 50.2002 0.817701 50.5068C1.00993 50.8134 1.3494 51.0001 1.71489 51.0001H61.1217C61.4465 51.0001 61.7531 50.8524 61.953 50.6C62.153 50.3476 62.2238 50.0185 62.1449 49.7076ZM30.7259 2.75604H33.2759V5.3033C32.8534 5.28167 32.4283 5.27043 32.0005 5.27043C31.573 5.27043 31.1481 5.28167 30.7259 5.30316V2.75604ZM7.42875 35.1302V32.6152H8.59186C8.62856 32.6191 8.66583 32.6212 8.70366 32.6212C8.74148 32.6212 8.77875 32.6191 8.81545 32.6152H13.9246C14.5071 32.6152 14.9793 32.1497 14.9793 31.5752C14.9793 31.0008 14.5071 30.5352 13.9246 30.5352H9.75848V29.2839C9.75848 17.1898 19.7362 7.35065 32.0005 7.35065C44.2648 7.35065 54.2427 17.1898 54.2427 29.2839V30.5352H18.139C17.5565 30.5352 17.0843 31.0008 17.0843 31.5752C17.0843 32.1497 17.5565 32.6152 18.139 32.6152H55.1855C55.2222 32.6191 55.2595 32.6212 55.2973 32.6212C55.3351 32.6212 55.3724 32.6191 55.4091 32.6152H56.5725V35.1302H7.42875ZM40.2649 37.2103V39.7303H23.7367V37.2103H40.2649ZM7.42875 41.8103H22.6764C22.6782 41.8103 22.6801 41.8106 22.6819 41.8106C22.6837 41.8106 22.6856 41.8103 22.6874 41.8103H41.3141C41.3159 41.8103 41.3178 41.8106 41.3196 41.8106C41.3214 41.8106 41.3233 41.8103 41.3251 41.8103H56.5727V44.3252H7.42875V41.8103ZM3.42137 48.9198L4.69627 46.4053H59.1332L59.7708 48.9198H3.42137Z" fill="#ED1C24"/>
</svg>
