<svg width="99" height="99" viewBox="0 0 99 99" fill="none" xmlns="http://www.w3.org/2000/svg">
<g clip-path="url(#clip0)">
<path d="M63.9163 19.1052C60.2764 19.1052 57.3164 22.0654 57.3164 25.7052C57.3164 29.3449 60.2765 32.3051 63.9163 32.3051C67.5562 32.3051 70.5163 29.3451 70.5163 25.7052C70.5163 22.0654 67.5562 19.1052 63.9163 19.1052ZM63.9163 29.0052C62.0964 29.0052 60.6163 27.5252 60.6163 25.7052C60.6163 23.8853 62.0963 22.4051 63.9163 22.4051C65.7364 22.4051 67.2164 23.8851 67.2164 25.7052C67.2162 27.5252 65.7362 29.0052 63.9163 29.0052Z" fill="#ED1C24"/>
<path d="M6.59994 74.25C2.96014 74.25 0 77.2101 0 80.8499C0 84.4897 2.96014 87.4499 6.59994 87.4499C10.2399 87.4499 13.1999 84.4897 13.1999 80.8499C13.1999 77.2101 10.2399 74.25 6.59994 74.25ZM6.59994 84.15C4.78004 84.15 3.29987 82.67 3.29987 80.8499C3.29987 79.0298 4.77984 77.5499 6.59994 77.5499C8.41983 77.5499 9.9 79.0298 9.9 80.8499C9.9 82.67 8.42003 84.15 6.59994 84.15Z" fill="#ED1C24"/>
<path d="M74.2503 85.7998C70.6103 85.7998 67.6504 88.7599 67.6504 92.3997C67.6504 96.0395 70.6103 98.9999 74.2503 98.9999C77.8903 98.9999 80.8502 96.0397 80.8502 92.3999C80.8502 88.7601 77.8903 85.7998 74.2503 85.7998ZM74.2503 95.6998C72.4304 95.6998 70.9503 94.2198 70.9503 92.3997C70.9503 90.5797 72.4304 89.0999 74.2503 89.0999C76.0702 89.0999 77.5504 90.5798 77.5504 92.3999C77.5504 94.22 76.0702 95.6998 74.2503 95.6998Z" fill="#ED1C24"/>
<path d="M71.0508 87.8856L56.8162 81.0135C55.9944 80.6157 55.0095 80.9607 54.6135 81.7825C54.2175 82.6025 54.5622 83.5892 55.3824 83.9852L69.617 90.8574C69.8481 90.9695 70.0923 91.0223 70.333 91.0223C70.9467 91.0223 71.5359 90.6791 71.8197 90.0884C72.2155 89.2682 71.8708 88.2816 71.0508 87.8856Z" fill="#ED1C24"/>
<path d="M79.2009 42.9001C69.1935 42.9001 61.0508 51.0429 61.0508 61.0502C61.0508 71.0575 69.1935 79.2003 79.2009 79.2003C89.2082 79.2003 97.3509 71.0575 97.3509 61.0502C97.3509 51.0429 89.2082 42.9001 79.2009 42.9001ZM79.2009 75.9C71.0119 75.9 64.3508 69.239 64.3508 61.05C64.3508 52.861 71.0119 46.2 79.2009 46.2C87.3898 46.2 94.0509 52.861 94.0509 61.05C94.0509 69.239 87.3898 75.9 79.2009 75.9Z" fill="#ED1C24"/>
<path d="M79.1996 49.5C75.5596 49.5 72.5996 52.4601 72.5996 56.0999C72.5996 59.7399 75.5598 62.6999 79.1996 62.6999C82.8396 62.6999 85.7995 59.7397 85.7995 56.0999C85.7995 52.4601 82.8396 49.5 79.1996 49.5ZM79.1996 59.4C77.3797 59.4 75.8995 57.92 75.8995 56.0999C75.8995 54.28 77.3795 52.7999 79.1996 52.7999C81.0195 52.7999 82.4996 54.2798 82.4996 56.0999C82.4996 57.92 81.0195 59.4 79.1996 59.4Z" fill="#ED1C24"/>
<path d="M83.9874 66H74.4142C71.5944 66 69.3008 68.2325 69.3008 70.9747V75.3242C69.3008 75.9131 69.6142 76.4576 70.1241 76.7531C72.8895 78.3535 76.0278 79.2001 79.2008 79.2001C82.3738 79.2001 85.5121 78.3535 88.2775 76.7531C88.7874 76.4594 89.1008 75.9131 89.1008 75.3259V70.9765C89.1008 68.2325 86.8074 66 83.9874 66ZM85.8007 74.3407C81.694 76.3867 76.7076 76.3867 72.6007 74.3407V70.9765C72.6007 70.0524 73.4141 69.3001 74.414 69.3001H83.9872C84.9871 69.3001 85.8005 70.0524 85.8005 70.9765V74.3407H85.8007Z" fill="#ED1C24"/>
<path d="M39.5993 62.7002C29.592 62.7002 21.4492 70.8429 21.4492 80.8503C21.4492 90.8576 29.592 99.0001 39.5993 99.0001C49.6066 99.0001 57.7494 90.8574 57.7494 80.8501C57.7494 70.8427 49.6066 62.7002 39.5993 62.7002ZM39.5993 95.7001C31.4103 95.7001 24.7493 89.039 24.7493 80.8501C24.7493 72.6611 31.4103 66.0001 39.5993 66.0001C47.7883 66.0001 54.4493 72.6611 54.4493 80.8501C54.4493 89.039 47.7883 95.7001 39.5993 95.7001Z" fill="#ED1C24"/>
<path d="M39.5999 69.3C35.9599 69.3 33 72.2601 33 75.8999C33 79.5399 35.9601 82.4999 39.5999 82.4999C43.2397 82.4999 46.1999 79.5397 46.1999 75.8999C46.1999 72.2601 43.2399 69.3 39.5999 69.3ZM39.5999 79.2C37.78 79.2 36.2999 77.72 36.2999 75.8999C36.2999 74.08 37.7798 72.5999 39.5999 72.5999C41.4198 72.5999 42.9 74.0798 42.9 75.8999C42.9 77.72 41.4198 79.2 39.5999 79.2Z" fill="#ED1C24"/>
<path d="M44.3858 85.7998H34.8126C31.9928 85.7998 29.6992 88.0323 29.6992 90.7746V95.124C29.6992 95.713 30.0127 96.2575 30.5225 96.5529C33.288 98.1534 36.4262 98.9999 39.5992 98.9999C42.7723 98.9999 45.9105 98.1534 48.6759 96.5529C49.1858 96.2592 49.4992 95.7132 49.4992 95.1257V90.7763C49.4992 88.0323 47.2058 85.7998 44.3858 85.7998ZM46.1992 94.1406C42.0922 96.1865 37.106 96.1865 32.9991 94.1406V90.7763C32.9991 89.8522 33.8126 89.0999 34.8124 89.0999H44.3856C45.3855 89.0999 46.199 89.8522 46.199 90.7763V94.1406H46.1992Z" fill="#ED1C24"/>
<path d="M78.87 43.5618L68.97 30.3617C68.4238 29.6309 67.3893 29.4872 66.6599 30.0317C65.9306 30.5779 65.7838 31.6124 66.3299 32.34L76.2299 45.5401C76.5549 45.9724 77.0499 46.2 77.5515 46.2C77.8947 46.2 78.2429 46.0927 78.5399 45.8699C79.2693 45.3239 79.4162 44.2894 78.87 43.5618Z" fill="#ED1C24"/>
<path d="M65.3275 66.5066C64.7812 65.7773 63.7468 65.6305 63.0174 66.1765L53.8006 73.0884C53.0712 73.6346 52.9244 74.6691 53.4705 75.3967C53.7955 75.8291 54.2905 76.0567 54.7921 76.0567C55.1369 76.0567 55.4834 75.9478 55.7806 75.7266L64.9974 68.8148C65.7268 68.2689 65.8737 67.2342 65.3275 66.5066Z" fill="#ED1C24"/>
<path d="M23.1005 79.2H11.5503C10.6396 79.2 9.90039 79.9375 9.90039 80.85C9.90039 81.7624 10.6396 82.4999 11.5503 82.4999H23.1003C24.011 82.4999 24.7502 81.7624 24.7502 80.85C24.7502 79.9375 24.0112 79.2 23.1005 79.2Z" fill="#ED1C24"/>
</g>
<defs>
<clipPath id="clip0">
<rect width="99" height="99" fill="white"/>
</clipPath>
</defs>
</svg>
