<svg width="22" height="24" viewBox="0 0 22 24" fill="none" xmlns="http://www.w3.org/2000/svg">
<path d="M21.6655 21.6289L16.2421 15.751C17.6366 14.0236 18.4006 11.8501 18.4006 9.58748C18.4006 4.30102 14.2733 0 9.2003 0C4.12733 0 0 4.30102 0 9.58748C0 14.8739 4.12733 19.175 9.2003 19.175C11.1048 19.175 12.9196 18.5764 14.4713 17.44L19.9358 23.3626C20.1643 23.6098 20.4715 23.7461 20.8007 23.7461C21.1123 23.7461 21.4079 23.6223 21.6323 23.3972C22.1091 22.9191 22.1243 22.1262 21.6655 21.6289ZM9.2003 2.50108C12.95 2.50108 16.0005 5.67995 16.0005 9.58748C16.0005 13.495 12.95 16.6739 9.2003 16.6739C5.45058 16.6739 2.40008 13.495 2.40008 9.58748C2.40008 5.67995 5.45058 2.50108 9.2003 2.50108Z" fill="white"/>
</svg>
