<svg width="22" height="22" viewBox="0 0 22 22" fill="none" xmlns="http://www.w3.org/2000/svg">
<path d="M11.6067 1.31803L13.9944 6.38541C14.1604 6.73785 14.4814 6.98206 14.8528 7.03849L20.192 7.85114C21.1273 7.99359 21.5004 9.19707 20.8239 9.88762L16.9605 13.832C16.692 14.1063 16.5692 14.5017 16.6328 14.8889L17.5447 20.4585C17.7045 21.434 16.7269 22.1777 15.8905 21.7175L11.1152 19.0881C10.7832 18.9054 10.3862 18.9054 10.0541 19.0881L5.27885 21.7175C4.44249 22.1782 3.46483 21.434 3.62468 20.4585L4.53655 14.8889C4.60014 14.5017 4.47738 14.1063 4.2089 13.832L0.34549 9.88762C-0.331014 9.19661 0.0421228 7.99313 0.977395 7.85114L6.31657 7.03849C6.68794 6.98206 7.00897 6.73785 7.17501 6.38541L9.56264 1.31803C9.98038 0.430449 11.1886 0.430449 11.6067 1.31803Z" fill="#ED1C24"/>
</svg>
