<svg width="25" height="25" viewBox="0 0 25 25" fill="none" xmlns="http://www.w3.org/2000/svg">
<path d="M20.2414 17.3401C20.1422 17.3401 20.0431 17.3038 19.9657 17.2304L15.3272 12.8789C15.1651 12.7273 15.1571 12.4718 15.3094 12.3097C15.4618 12.1461 15.7157 12.1388 15.8794 12.292L20.5179 16.6435C20.6799 16.7951 20.688 17.0506 20.5356 17.2127C20.4558 17.2973 20.3494 17.3401 20.2414 17.3401Z" fill="#ED1C24"/>
<path d="M4.75796 17.3403C4.65075 17.3403 4.54353 17.2976 4.46372 17.2129C4.31136 17.0509 4.31942 16.7953 4.48146 16.6438L9.12159 12.2922C9.28443 12.1407 9.53998 12.1471 9.69154 12.31C9.8439 12.472 9.83583 12.7276 9.6738 12.8791L5.03366 17.2307C4.95627 17.304 4.85712 17.3403 4.75796 17.3403Z" fill="#ED1C24"/>
<path d="M22.9847 21.3861H2.01535C0.904489 21.3861 0 20.4824 0 19.3707V5.62845C0 4.51678 0.904489 3.6131 2.01535 3.6131H22.9847C24.0955 3.6131 25 4.51678 25 5.62845V19.3707C25 20.4824 24.0955 21.3861 22.9847 21.3861ZM2.01535 4.41924C1.34867 4.41924 0.80614 4.96177 0.80614 5.62845V19.3707C0.80614 20.0374 1.34867 20.5799 2.01535 20.5799H22.9847C23.6513 20.5799 24.1939 20.0374 24.1939 19.3707V5.62845C24.1939 4.96177 23.6513 4.41924 22.9847 4.41924H2.01535Z" fill="#ED1C24"/>
<path d="M12.5005 14.525C11.9644 14.525 11.4283 14.3469 11.0204 13.9914L0.669574 4.96178C0.501897 4.81587 0.484162 4.56113 0.630073 4.39265C0.777597 4.22497 1.03153 4.20965 1.19921 4.35395L11.55 13.3827C12.0652 13.8317 12.9358 13.8317 13.4501 13.3827L23.788 4.36846C23.9549 4.22255 24.2089 4.23867 24.3572 4.40716C24.5031 4.57564 24.4862 4.82957 24.3185 4.97629L13.9806 13.9905C13.5718 14.3469 13.0366 14.525 12.5005 14.525Z" fill="#ED1C24"/>
</svg>
