<svg width="23" height="34" viewBox="0 0 23 34" fill="none" xmlns="http://www.w3.org/2000/svg">
<path d="M18 10.6875C18 9.35248 17.6041 8.04744 16.8624 6.9374C16.1207 5.82737 15.0665 4.96221 13.8331 4.45132C12.5997 3.94042 11.2425 3.80675 9.93314 4.0672C8.62377 4.32765 7.42104 4.97053 6.47703 5.91453C5.53303 6.85854 4.89015 8.06127 4.6297 9.37064C4.36925 10.68 4.50292 12.0372 5.01382 13.2706C5.52471 14.504 6.38987 15.5582 7.4999 16.2999C8.60994 17.0416 9.91498 17.4375 11.25 17.4375C13.0396 17.4356 14.7554 16.7238 16.0208 15.4583C17.2863 14.1929 17.9981 12.4771 18 10.6875ZM5.625 10.6875C5.625 9.57498 5.9549 8.48745 6.57299 7.56242C7.19107 6.63739 8.06957 5.91642 9.09741 5.49068C10.1252 5.06494 11.2562 4.95354 12.3474 5.17059C13.4385 5.38763 14.4408 5.92336 15.2275 6.71003C16.0141 7.4967 16.5499 8.49898 16.7669 9.59012C16.984 10.6813 16.8726 11.8123 16.4468 12.8401C16.0211 13.8679 15.3001 14.7464 14.3751 15.3645C13.4501 15.9826 12.3625 16.3125 11.25 16.3125C9.75866 16.3109 8.32887 15.7177 7.27434 14.6632C6.2198 13.6086 5.62664 12.1788 5.625 10.6875Z" fill="#ED1C24"/>
<path d="M15.4204 25.056C18.5586 21.375 22.5 15.8445 22.5 11.25C22.5 8.26631 21.3147 5.40483 19.205 3.29505C17.0952 1.18526 14.2337 0 11.25 0C8.26631 0 5.40483 1.18526 3.29505 3.29505C1.18526 5.40483 0 8.26631 0 11.25C0 15.8445 3.94144 21.375 7.07963 25.056C2.745 25.7113 0 27.3122 0 29.25C0 32.175 5.79656 33.75 11.25 33.75C16.7034 33.75 22.5 32.175 22.5 29.25C22.5 27.3122 19.755 25.7113 15.4204 25.056ZM11.25 1.125C13.9344 1.12813 16.5079 2.19587 18.406 4.094C20.3041 5.99213 21.3719 8.56564 21.375 11.25C21.375 17.4611 13.1484 26.0106 11.25 27.9C9.35156 26.0106 1.125 17.4611 1.125 11.25C1.12813 8.56564 2.19587 5.99213 4.094 4.094C5.99213 2.19587 8.56564 1.12813 11.25 1.125ZM11.25 32.625C5.28356 32.625 1.125 30.8464 1.125 29.25C1.125 28.0958 3.5235 26.6102 7.96613 26.0719C9.51806 27.8111 10.719 28.9592 10.863 29.0959C10.9675 29.1949 11.106 29.2502 11.25 29.2502C11.394 29.2502 11.5325 29.1949 11.637 29.0959C11.781 28.9592 12.9819 27.8111 14.5339 26.0719C18.9765 26.6102 21.375 28.0958 21.375 29.25C21.375 30.8464 17.2164 32.625 11.25 32.625Z" fill="#ED1C24"/>
</svg>
