<svg width="25" height="25" viewBox="0 0 25 25" fill="none" xmlns="http://www.w3.org/2000/svg">
<g clip-path="url(#clip0)">
<path d="M24.9838 20.5761C24.9043 19.9753 24.5575 19.4574 24.0324 19.155L17.8648 15.604C17.1095 15.1691 16.1512 15.2957 15.5346 15.9122L14.3198 17.127C13.9965 17.4503 13.4851 17.4789 13.1304 17.1935C12.1727 16.4229 11.2297 15.5748 10.3277 14.6727C9.42575 13.7708 8.57766 12.8278 7.80699 11.8701C7.52152 11.5153 7.55009 11.004 7.87346 10.6806L9.08823 9.46582C9.70474 8.84936 9.83152 7.89117 9.39649 7.13563L5.84542 0.968038C5.54305 0.442886 5.02514 0.0961329 4.42439 0.0166528C3.82359 -0.0629893 3.23327 0.137385 2.80477 0.565886L0.974296 2.39641C-0.303271 3.67403 -0.323789 6.01103 0.916522 8.97701C2.10916 11.8289 4.33481 14.9684 7.18341 17.8171C10.0321 20.6657 13.1716 22.8914 16.0235 24.084C17.4835 24.6945 18.7909 24.9996 19.8948 24.9995C21.0334 24.9995 21.9554 24.6749 22.6041 24.0262L24.4346 22.1956C24.863 21.7671 25.0632 21.1768 24.9838 20.5761ZM17.4607 16.3059L23.6283 19.8569C23.9334 20.0325 24.1348 20.3334 24.1809 20.6823C24.2196 20.9751 24.1436 21.2634 23.9711 21.4958L15.7744 16.8178L16.1073 16.4849C16.4654 16.1269 17.022 16.0533 17.4607 16.3059ZM4.31813 0.819607C4.6671 0.865772 4.9679 1.06717 5.14349 1.37219L8.69456 7.53978C8.94725 7.97859 8.8736 8.53517 8.51556 8.89315L8.20979 9.19893L3.5061 1.02938C3.69838 0.886992 3.92834 0.809672 4.16808 0.809672C4.21781 0.809672 4.26797 0.812966 4.31813 0.819607ZM22.0313 23.4535C21.0163 24.4684 18.9405 24.4259 16.336 23.3367C13.579 22.1838 10.532 20.0201 7.75618 17.2443C4.98032 14.4685 2.81665 11.4215 1.66375 8.66454C0.57452 6.06 0.532026 3.98412 1.54702 2.96908L2.9059 1.61014L7.61666 9.79206L7.30074 10.108C6.68439 10.7244 6.63072 11.7002 7.17596 12.3779C7.96477 13.3582 8.83251 14.323 9.75496 15.2455C10.6775 16.168 11.6423 17.0357 12.6226 17.8245C13.3002 18.3697 14.276 18.3161 14.8925 17.6997L15.1807 17.4115L23.3888 22.096L22.0313 23.4535Z" fill="#ED1C24"/>
</g>
<defs>
<clipPath id="clip0">
<rect width="25" height="25" fill="white"/>
</clipPath>
</defs>
</svg>
