<svg width="33" height="33" viewBox="0 0 33 33" fill="none" xmlns="http://www.w3.org/2000/svg">
<path d="M7.31888 4.85291C3.28355 4.85291 0.000976562 8.13548 0.000976562 12.1709C0.000976562 16.0637 3.05595 19.2566 6.89442 19.4772C6.96088 20.1948 6.91102 22.148 5.03935 24.8651C4.89787 25.07 4.92355 25.3465 5.09927 25.5222C5.86518 26.2881 6.33852 26.7705 6.66981 27.1078C7.1034 27.549 7.3013 27.7504 7.59082 28.0132C7.689 28.1023 7.81285 28.1471 7.93727 28.1471C8.05808 28.1471 8.17843 28.1049 8.27562 28.0208C11.5371 25.1828 15.16 19.3191 14.6359 12.1336C14.3287 7.91494 11.2516 4.85291 7.31888 4.85291ZM7.94227 26.9271C7.80182 26.7886 7.64166 26.6255 7.40551 26.3852C7.11851 26.0927 6.72473 25.6919 6.12753 25.0927C8.39901 21.5926 7.96996 19.0996 7.78217 18.742C7.69302 18.5723 7.51023 18.458 7.31888 18.458C3.85254 18.458 1.03223 15.6377 1.03223 12.1709C1.03223 8.70447 3.85254 5.88416 7.31888 5.88416C10.6957 5.88416 13.3402 8.54385 13.6076 12.2081C14.1968 20.2899 9.3935 25.5373 7.94227 26.9271Z" fill="#ED1C24"/>
<path d="M32.9494 12.1336V12.1331C32.6412 7.91494 29.5636 4.85291 25.6319 4.85291C21.5966 4.85291 18.3135 8.13548 18.3135 12.1709C18.3135 16.0637 21.369 19.2566 25.2079 19.4772C25.2744 20.1942 25.224 22.1465 23.3519 24.8651C23.2104 25.07 23.2361 25.3465 23.4118 25.5222C24.1747 26.2851 24.647 26.7665 24.9783 27.1033C25.4139 27.5474 25.6128 27.7499 25.9038 28.0137C26.002 28.1023 26.1264 28.1471 26.2503 28.1471C26.3711 28.1471 26.4915 28.1049 26.5886 28.0202C29.8501 25.1823 33.4731 19.3186 32.9494 12.1336ZM26.2553 26.9271C26.1138 26.7876 25.9522 26.6235 25.714 26.3808C25.427 26.0887 25.0347 25.6889 24.44 25.0927C26.7115 21.5921 26.283 19.0996 26.0957 18.742C26.0065 18.5729 25.8233 18.458 25.6319 18.458C22.165 18.458 19.3447 15.6377 19.3447 12.1709C19.3447 8.70447 22.165 5.88416 25.6319 5.88416C29.0082 5.88416 31.6533 8.54385 31.9211 12.2086V12.2081C32.5098 20.2889 27.7065 25.5373 26.2553 26.9271Z" fill="#ED1C24"/>
</svg>
